<?xml version="1.0" encoding="UTF-8" standalone="no"?>
<svg
   xmlns:dc="http://purl.org/dc/elements/1.1/"
   xmlns:cc="http://creativecommons.org/ns#"
   xmlns:rdf="http://www.w3.org/1999/02/22-rdf-syntax-ns#"
   xmlns:svg="http://www.w3.org/2000/svg"
   xmlns="http://www.w3.org/2000/svg"
   xmlns:xlink="http://www.w3.org/1999/xlink"
   id="svg15"
   version="1.1"
   viewBox="0 0 111.196 30.566"
   height="30.566"
   width="111.196">
  <metadata
     id="metadata19">
    <rdf:RDF>
      <cc:Work
         rdf:about="">
        <dc:format>image/svg+xml</dc:format>
        <dc:type
           rdf:resource="http://purl.org/dc/dcmitype/StillImage" />
        <dc:title></dc:title>
      </cc:Work>
    </rdf:RDF>
  </metadata>
  <defs
     id="defs7">
    <linearGradient
       spreadMethod="pad"
       y1="0"
       gradientTransform="matrix(0.59624807,0.34424398,-0.7262291,1.2578657,11.077647,-34.657628)"
       gradientUnits="userSpaceOnUse"
       y2="9.6102076"
       x2="16.900385"
       x1="6.6274042"
       id="linear-gradient">
      <stop
         id="stop2"
         stop-color="#fe8464"
         offset="0" />
      <stop
         id="stop4"
         stop-color="#fe6e9a"
         offset="1" />
    </linearGradient>
    <linearGradient
       id="linearGradient4554">
      <stop
         offset="0"
         style="stop-color:#f27649;stop-opacity:1;"
         id="stop81" />
      <stop
         offset="1"
         style="stop-color:#f27649;stop-opacity:0;"
         id="stop83" />
    </linearGradient>
    <linearGradient
       gradientTransform="matrix(0.24258508,0,0,0.24258508,-59.89885,-9.8246627)"
       gradientUnits="userSpaceOnUse"
       y2="220"
       x2="300"
       y1="40"
       x1="300"
       id="linearGradient4556"
       xlink:href="#linear-gradient" />
  </defs>
  <path
     id="Subtraction_2"
     data-name="Subtraction 2"
     d="m 12.5573,-12.136628 v 0 A 13.694,13.694 0 0 0 32.631524,-27.540204 13.6,13.6 0 0 0 26.2513,-35.855332 Z"
     style="fill:#ffffff" />
  <path
     id="path91"
     style="fill:#2e2e2e;stroke-width:0.46026087;fill-opacity:1"
     d="m 62.898018,7.2e-6 c -2.093857,0 -3.664112,1.1872854 -3.664112,3.9212056 V 8.5328109 H 57.66255 c -0.165311,0 -0.247213,0.08243 -0.247213,0.248109 v 0.663424 c 0,0.165702 0.0819,0.248109 0.247213,0.248109 h 1.571356 v 9.6385111 c 0,0.1657 0.0819,0.248107 0.247211,0.248107 h 0.826133 c 0.16531,0 0.249005,-0.08242 0.249005,-0.248107 V 9.6924529 h 3.525672 c 0.165311,0 0.248108,-0.08241 0.248108,-0.248109 v -0.663424 c 0,-0.165682 -0.0828,-0.248109 -0.248108,-0.248109 H 60.556255 V 3.8654793 c 0,-2.1263839 1.322386,-2.5395259 2.341763,-2.5395259 0.79897,0 1.487792,0.2755101 2.038806,0.71736 0.13775,0.1104613 0.27513,0.1102266 0.357785,-0.027874 l 0.385648,-0.5240866 c 0.110207,-0.1104615 0.08265,-0.2776306 0,-0.3604777 C 64.881286,0.3852594 63.944945,0 62.898018,0 Z m 28.239516,0 c -2.093862,0 -3.66409,1.1872854 -3.664105,3.9212056 v 4.6115981 h -1.571365 c -0.16531,0 -0.247208,0.08243 -0.247208,0.248109 v 0.663424 c 0,0.165702 0.08191,0.248109 0.247208,0.248109 h 1.571365 v 9.6385111 c 0,0.1657 0.0819,0.248107 0.247208,0.248107 h 0.826135 c 0.165309,0 0.249004,-0.08242 0.249004,-0.248107 V 9.6924529 h 3.525674 c 0.165311,0 0.248111,-0.08241 0.248111,-0.248109 v -0.663424 c 0,-0.165682 -0.0828,-0.248109 -0.248111,-0.248109 H 88.795776 V 3.8654793 c 0,-2.1263839 1.322374,-2.5395259 2.341758,-2.5395259 0.798969,0 1.487796,0.2755101 2.038814,0.71736 0.137747,0.1104613 0.275132,0.1102266 0.357782,-0.027874 l 0.385651,-0.5240866 c 0.110207,-0.1104615 0.08265,-0.2776306 0,-0.3604777 C 93.120811,0.3852594 92.184463,0 91.137534,0 Z M 75.433827,3.8376107 c -0.165311,0 -0.248106,0.083311 -0.248106,0.2490087 v 4.4461915 h -3.059115 c -0.16531,0 -0.247212,0.08243 -0.247212,0.248109 v 0.663424 c 0,0.165702 0.0819,0.248109 0.247212,0.248109 h 3.059115 v 9.6385111 c 0,0.1657 0.0828,0.248107 0.248106,0.248107 h 0.825235 c 0.165313,0 0.249012,-0.08242 0.249012,-0.248107 V 9.6924529 h 3.058216 c 0.165311,0 0.24721,-0.08241 0.24721,-0.248109 v -0.663424 c 0,-0.165682 -0.0819,-0.248109 -0.24721,-0.248109 H 76.508074 V 4.0866194 c 0,-0.1657019 -0.0837,-0.2490087 -0.249012,-0.2490087 z M 45.430576,8.2010999 c -3.058136,0 -5.234569,1.8502771 -5.234569,5.5231311 v 5.606733 c 0,0.1657 0.0819,0.248107 0.247209,0.248107 h 0.827931 c 0.16531,0 0.247211,-0.08242 0.247211,-0.248107 v -5.606733 c 0,-3.507159 2.231621,-4.3086531 3.912218,-4.3086531 1.625491,0 3.911318,0.8014941 3.911318,4.3086531 v 5.606733 c 0,0.1657 0.0837,0.248107 0.249007,0.248107 h 0.826134 c 0.16531,0 0.247211,-0.08242 0.247211,-0.248107 v -5.606733 c 0,-3.672854 -2.175537,-5.5231311 -5.23367,-5.5231311 z m 54.854634,0.385649 c -0.1102,0 -0.22108,0.110676 -0.13842,0.22114 l 4.76621,10.8251211 -3.27846,7.567333 c -0.0826,0.110462 3.7e-4,0.275332 0.11058,0.302949 l 0.77218,0.331709 c 0.11022,0.08284 0.24728,-0.028 0.32994,-0.138434 l 8.31974,-18.8886741 c 0.0826,-0.110462 -0.0263,-0.221142 -0.13663,-0.22114 h -0.96458 c -0.13774,0 -0.27513,0.08306 -0.35776,0.22114 l -4.05065,9.1962261 -4.04978,-9.1962261 c -0.0826,-0.138082 -0.22002,-0.221142 -0.35777,-0.22114 z" />
  <path
     id="path93"
     style="fill:url(#linearGradient4556);fill-opacity:1;stroke-width:0.24258508"
     d="M 13.068089,3.3798176e-5 C 13.059429,-0.00285296 12.883501,0.18006984 12.677205,0.40655285 12.145817,0.98998713 11.744144,1.4428923 11.214589,2.0534787 l -0.0886,0.1013975 0.05022,0.05923 c 0.02752,0.032352 0.263493,0.2920372 0.524023,0.5775607 0.260531,0.2854585 0.670384,0.740168 0.911115,1.01014 0.240733,0.2699721 0.443298,0.4927477 0.449636,0.49512 0.0064,0.00258 0.135181,-0.1333127 0.286649,-0.30181 0.15147,-0.1684281 0.531242,-0.5884325 0.84431,-0.9338573 C 14.505004,2.7157721 14.816934,2.371536 14.88463,2.2965482 L 15.007344,2.160094 14.727331,1.8435956 C 13.443956,0.39502126 13.096839,0.00946733 13.068085,4.4108041e-5 Z M 9.7519697,3.8174317 c -0.0059,0 -0.07792,0.082355 -0.159669,0.1838342 -0.51152,0.635429 -0.949633,1.1852346 -1.161281,1.4564583 l -0.244007,0.3127075 0.134084,0.1283991 c 0.07371,0.070643 0.522827,0.5149283 0.997821,0.9873975 L 10.18218,7.7452257 10.471672,7.3865599 C 10.898637,6.8560369 11.086421,6.6284723 11.425429,6.2295424 11.593366,6.0319208 11.728025,5.8637649 11.725344,5.8561892 11.709844,5.8115782 9.7796107,3.8174317 9.7519697,3.8174317 Z m 6.6781983,0.00186 c -0.007,-0.00258 -0.300245,0.2832718 -0.651474,0.6348898 -0.583398,0.5840962 -1.340004,1.3691956 -1.352223,1.4033934 -0.0029,0.00773 0.05394,0.083603 0.125557,0.1686725 0.07155,0.085139 0.403826,0.4874948 0.738653,0.8945324 0.334827,0.4070985 0.625612,0.759233 0.64626,0.7817683 l 0.03744,0.040744 0.789824,-0.781295 C 17.198284,6.5323566 17.650329,6.08912 17.769128,5.9769651 17.929026,5.8259998 17.981962,5.7672934 17.973336,5.7504893 17.945313,5.6963316 16.452259,3.8278509 16.430172,3.8192855 Z m -3.366343,3.4876338 c -0.0057,2.67e-4 -0.16884,0.1818063 -0.362457,0.4036766 -1.153533,1.3219898 -1.217389,1.3974023 -1.203922,1.4161859 0.0075,0.010403 0.20191,0.2252108 0.432579,0.4775887 0.348484,0.3813362 0.608372,0.6718373 1.081209,1.2096083 0.02737,0.03119 0.05229,0.05686 0.05544,0.05686 0.0033,0 0.170181,-0.184974 0.370986,-0.411258 0.342213,-0.385685 1.072987,-1.2008214 1.16839,-1.3034211 L 14.64917,9.1097299 14.309456,8.7103174 C 13.81531,8.1291166 13.084803,7.3061965 13.06383,7.3069203 Z M 6.6959657,7.7139188 c -0.0046,0 -0.103595,0.1309848 -0.219842,0.2909125 -0.428862,0.5902893 -0.9940288,1.4098109 -0.9940288,1.4417705 0,0.00742 0.1394468,0.1360407 0.3098628,0.2852265 0.170356,0.1491209 0.630375,0.5577867 1.021985,0.9087467 0.39168,0.351025 0.715322,0.638126 0.719701,0.637733 0.0044,-3.64e-4 0.139299,-0.18851 0.299915,-0.417891 0.160688,-0.229381 0.438721,-0.61968 0.617833,-0.8670521 L 8.7768927,9.5442 8.6911347,9.4617624 C 8.2818777,9.071926 6.7318407,7.7139177 6.6959677,7.7139177 Z m 12.7333493,9.465e-4 c -0.0056,3.391e-4 -0.121179,0.093655 -0.257746,0.2075242 -0.601761,0.5017244 -1.811808,1.5860179 -1.811808,1.6237087 0,0.0068 0.214608,0.3093702 0.476641,0.6723208 0.262033,0.363018 0.536235,0.74567 0.608833,0.849521 0.07266,0.103851 0.137434,0.19459 0.144035,0.201839 0.0067,0.0073 0.159005,-0.123305 0.338765,-0.289492 0.550013,-0.508516 1.322274,-1.192139 1.633185,-1.4460338 0.05084,-0.041518 0.09288,-0.079737 0.09333,-0.084809 0.0026,-0.026641 -1.204988,-1.7359605 -1.225244,-1.7345779 z m -9.293567,3.0849037 c -0.0097,-0.0019 -0.121943,0.127114 -0.2496913,0.286649 -0.554064,0.692161 -1.067437,1.366032 -1.060837,1.393443 0.0052,0.02154 1.6427123,1.691961 1.6497683,1.682934 0.0026,-0.0033 0.08819,-0.118724 0.189993,-0.255852 0.217861,-0.293169 0.504717,-0.665524 0.865157,-1.122903 0.142978,-0.181342 0.263237,-0.337697 0.267223,-0.348242 0.0106,-0.02781 -1.613128,-1.626538 -1.661613,-1.636029 z m 5.913959,9.47e-4 c -0.0082,-0.0026 -0.105784,0.0774 -0.217,0.178148 -0.422719,0.38292 -1.483466,1.418354 -1.483466,1.448403 0,0.0052 0.08641,0.119109 0.191417,0.25301 0.105071,0.133899 0.402817,0.522238 0.662369,0.862787 0.259484,0.340611 0.478832,0.618689 0.487067,0.617834 0.0082,-7.28e-4 0.388006,-0.380791 0.844308,-0.843836 l 0.829624,-0.84194 -0.43258,-0.562874 C 16.432535,11.263247 16.07127,10.807637 16.049707,10.800716 Z m 5.840046,0.574718 c -0.0072,-0.0019 -0.131599,0.09224 -0.27575,0.208945 -1.106487,0.895714 -1.804831,1.467736 -1.817967,1.48915 -0.004,0.0065 0.07577,0.144302 0.176726,0.306075 0.228971,0.366774 0.531489,0.871403 0.704067,1.173599 0.153427,0.268656 0.127987,0.256791 0.282856,0.126976 0.368412,-0.308915 1.235343,-0.996069 1.715628,-1.360274 0.187608,-0.142334 0.242189,-0.191468 0.235003,-0.210841 -0.03959,-0.106685 -0.993438,-1.726975 -1.020563,-1.73363 z m -17.6745973,0.02417 c -0.00753,1.31e-4 -0.1195563,0.178589 -0.2487451,0.396571 -0.3002594,0.50647 -0.7765556,1.336985 -0.7765556,1.354117 0,0.0072 0.079891,0.07332 0.1767276,0.146404 0.2624263,0.19815 0.6920569,0.536713 1.3356379,1.053729 0.3167263,0.254488 0.5796224,0.4629 0.5841954,0.4629 0.0046,0 0.119526,-0.188271 0.2553758,-0.418836 0.135923,-0.230568 0.367442,-0.615559 0.514073,-0.855682 0.146635,-0.240123 0.260963,-0.441878 0.25443,-0.44774 -0.28118,-0.25284 -2.0636445,-1.691924 -2.095139,-1.691463 z m 8.8481963,2.356677 c -0.0053,0 -0.141075,0.14423 -0.302284,0.320762 -0.582288,0.637668 -0.81879,0.898256 -1.00019,1.102529 l -0.185254,0.208471 0.185728,0.19947 c 0.300327,0.32282 0.599932,0.662066 0.963707,1.091633 0.325809,0.384699 0.341744,0.4012 0.366248,0.374775 0.01404,-0.01519 0.176415,-0.20426 0.36056,-0.420259 0.370635,-0.434716 0.709301,-0.820714 0.940491,-1.070786 0.08345,-0.09027 0.15222,-0.168209 0.152089,-0.173412 -2.42e-4,-0.01635 -1.082426,-1.223502 -1.331848,-1.485831 -0.07723,-0.08118 -0.14409,-0.147418 -0.149247,-0.147352 z m -5.4865933,0.423576 c -0.0029,3.4e-4 -0.07239,0.0975 -0.154459,0.215579 -0.512565,0.737237 -0.932266,1.396035 -0.904954,1.421869 0.01126,0.01065 0.175796,0.154259 0.365299,0.318867 0.413305,0.358932 0.79572,0.702866 1.128589,1.014877 0.135129,0.126651 0.250869,0.230266 0.257273,0.230266 0.0065,0 0.06437,-0.08647 0.128398,-0.192362 0.144806,-0.239463 0.512659,-0.804531 0.745287,-1.144225 0.09652,-0.140952 0.17333,-0.263339 0.171042,-0.272433 -0.0099,-0.03875 -1.707658,-1.595665 -1.736475,-1.592438 z m 10.9968773,0 c -0.0041,3.64e-4 -0.128908,0.110911 -0.277174,0.244481 -1.048915,0.944805 -1.457014,1.322005 -1.459302,1.3508 -7.27e-4,0.0098 0.145588,0.240448 0.325028,0.513123 0.179372,0.272674 0.412691,0.630482 0.518809,0.794561 0.106124,0.16408 0.199388,0.298493 0.206576,0.298493 0.0072,0 0.149462,-0.124138 0.316023,-0.276224 0.166566,-0.152152 0.544933,-0.493299 0.841467,-0.757605 0.296604,-0.264306 0.555389,-0.496382 0.575193,-0.515493 l 0.03601,-0.03459 -0.146405,-0.231213 C 19.189086,15.061624 18.591934,14.17741 18.573639,14.179848 Z M 2.2143035,15.009943 c -0.00794,0 -0.069251,0.113841 -0.1355077,0.25301 -0.1299043,0.272741 -0.4328061,0.943981 -0.5732966,1.269307 -0.050188,0.116172 -0.081757,0.205962 -0.073911,0.21321 0.00742,0.0068 0.209315,0.143987 0.4482152,0.304177 0.5518397,0.370133 0.9059197,0.617828 1.2314032,0.861842 0.1418008,0.106289 0.2995944,0.214451 0.3510859,0.240216 0.05156,0.02576 0.1024492,0.05447 0.1132364,0.06349 0.025661,0.02154 0.00959,0.05214 0.1828867,-0.348243 0.1833589,-0.423903 0.3877757,-0.873704 0.4993841,-1.098738 0.044961,-0.09074 0.086428,-0.179307 0.091913,-0.1971 0.00866,-0.02805 -0.021177,-0.05533 -0.2269501,-0.206104 -0.668808,-0.489999 -1.887228,-1.355068 -1.9084622,-1.355068 z m 21.6251375,9.72e-4 c -0.0093,4.84e-4 -0.174123,0.113798 -0.367671,0.251587 -1.17386,0.835485 -1.752913,1.255613 -1.762061,1.279731 -0.0037,0.0098 0.03169,0.08516 0.07818,0.167723 0.222105,0.394581 0.445201,0.85625 0.623984,1.290628 0.04959,0.12046 0.09145,0.220854 0.0933,0.223161 0.0052,0.0063 0.205497,-0.132112 0.679895,-0.470484 0.46715,-0.333167 1.00814,-0.710962 1.267886,-0.885055 0.09062,-0.06076 0.17,-0.11523 0.176732,-0.121292 0.03103,-0.0282 -0.747434,-1.738241 -0.790292,-1.735999 z m -13.444525,1.79617 c -0.0058,0 -0.13119,0.154989 -0.279067,0.343978 -0.2191703,0.28012 -0.6285073,0.816558 -0.8338873,1.093054 l -0.04027,0.05496 0.12319,0.118452 c 0.37475,0.360116 0.583955,0.575436 1.0044523,1.032882 0.25576,0.278277 0.470305,0.506017 0.476644,0.506015 0.0064,0 0.06509,-0.07849 0.130295,-0.174831 0.166828,-0.246316 0.468271,-0.661377 0.750497,-1.033354 0.132391,-0.174491 0.241035,-0.321454 0.241164,-0.326923 4.85e-4,-0.02489 -1.548248,-1.614233 -1.573014,-1.614233 z m 5.364826,0 c -0.0053,6.5e-5 -0.17637,0.161847 -0.379987,0.359139 -0.203611,0.197288 -0.513292,0.50807 -0.687957,0.6908 -0.174603,0.182791 -0.366727,0.38352 -0.427367,0.446318 l -0.110868,0.114187 0.296599,0.399412 c 0.163034,0.21976 0.413134,0.564493 0.556241,0.766132 0.143103,0.201639 0.265817,0.369529 0.271959,0.373353 0.0062,0.0038 0.128379,-0.120169 0.271487,-0.275749 0.264973,-0.288223 0.971036,-1.008987 1.222876,-1.247986 l 0.138821,-0.132192 -0.07012,-0.100923 C 16.640297,17.912404 15.781703,16.807014 15.759747,16.80708 Z m 4.89766,0.585617 c -0.0058,-0.0062 -0.276629,0.204176 -0.601725,0.467166 -0.533542,0.431745 -1.003118,0.822322 -1.181181,0.982186 l -0.06633,0.05874 0.363878,0.716385 c 0.438858,0.864675 0.447531,0.880577 0.470008,0.862789 0.0096,-0.0075 0.232874,-0.186602 0.496543,-0.397993 0.472701,-0.379095 0.963079,-0.765164 1.232825,-0.971286 0.07593,-0.05805 0.137875,-0.11141 0.137875,-0.118926 0,-0.03736 -0.805431,-1.549254 -0.851891,-1.599069 z m -15.1596721,0.0033 c -0.0089,0.0063 -0.01834,0.02152 -0.03459,0.04975 -0.222042,0.385489 -0.8247333,1.529654 -0.8168267,1.550742 0.00258,0.007 0.1527623,0.127408 0.3340273,0.267698 0.3772394,0.292047 0.6105502,0.477155 1.1385392,0.902113 0.205964,0.165794 0.382372,0.307774 0.392305,0.315549 0.01322,0.01031 0.08316,-0.117592 0.260115,-0.474746 0.133043,-0.268653 0.314902,-0.62461 0.404624,-0.791718 0.08972,-0.167111 0.163461,-0.307964 0.163461,-0.312706 0,-0.01497 -1.689888,-1.415489 -1.812282,-1.501944 -0.01184,-0.0084 -0.02048,-0.01101 -0.02937,-0.0047 z m -4.75978467,1.390126 c -0.00804,0 -0.056302,0.14766 -0.1070793,0.328341 -0.1981866,0.704686 -0.2991243,1.148605 -0.2676947,1.170284 0.010454,0.0072 0.1775936,0.09413 0.3719315,0.192836 0.44447587,0.225691 1.28115957,0.71484 1.65734807,0.969394 0.1404935,0.09515 0.1286362,0.103851 0.1843094,-0.134559 0.060447,-0.259168 0.1876344,-0.711046 0.2842781,-1.007772 0.040446,-0.124213 0.07188,-0.2272 0.070117,-0.228845 -0.053457,-0.04988 -2.16184787,-1.289679 -2.19321467,-1.289679 z m 24.65602777,0.0047 c -0.01474,0.0029 -0.03217,0.01741 -0.05732,0.03222 -0.03289,0.01936 -0.301749,0.175439 -0.596983,0.347295 -0.55099,0.320646 -1.243658,0.734627 -1.419503,0.848098 l -0.09856,0.06396 0.08619,0.314601 c 0.04773,0.17324 0.133338,0.494859 0.18999,0.714488 0.05671,0.21963 0.109873,0.401448 0.117976,0.404152 0.0082,0.0029 0.310719,-0.173742 0.672801,-0.392779 0.426107,-0.257846 0.809964,-0.477106 1.088784,-0.621151 0.236818,-0.122369 0.430684,-0.229318 0.430684,-0.236899 0,-0.03696 -0.133358,-0.588051 -0.217002,-0.896902 -0.132956,-0.490655 -0.152874,-0.585441 -0.197093,-0.577086 z M 13.066667,19.612396 12.86483,19.84503 c -0.432326,0.497241 -1.023076,1.230629 -1.012034,1.256989 0.0041,0.0099 0.147711,0.187445 0.318393,0.395149 0.311696,0.379226 0.73234,0.905854 0.830095,1.038567 0.06632,0.08994 0.05501,0.0935 0.166303,-0.05259 0.20721,-0.272014 0.560579,-0.714872 0.815882,-1.022933 0.147873,-0.178378 0.276781,-0.335274 0.286648,-0.348716 0.02008,-0.0274 -0.199239,-0.30556 -0.81825,-1.03904 -0.177806,-0.210732 -0.336808,-0.400661 -0.353928,-0.421681 z m 4.79011,0.08055 c -0.0055,4.84e-4 -0.07434,0.05933 -0.152564,0.130767 -0.70618,0.644852 -0.948721,0.869049 -1.237089,1.141856 l -0.334028,0.31555 0.07723,0.123189 c 0.246869,0.396491 0.548462,0.927878 0.697905,1.22856 0.04195,0.08454 0.08213,0.157542 0.0886,0.161564 0.0065,0.0041 0.142676,-0.11589 0.30323,-0.2658 0.503942,-0.470625 0.957785,-0.885509 1.206292,-1.103952 0.131803,-0.115909 0.245282,-0.216568 0.252536,-0.223159 0.02745,-0.02493 -0.8616,-1.511605 -0.902114,-1.508575 z m -9.5887453,4.84e-4 c -0.0042,4.86e-4 -0.07718,0.110319 -0.162987,0.24448 -0.331885,0.519253 -0.735335,1.201338 -0.735335,1.243248 0,0.0101 0.116096,0.119457 0.25822,0.243535 0.33875,0.295807 0.81526,0.730706 1.136171,1.036197 0.141662,0.134823 0.282745,0.267212 0.313652,0.294229 l 0.05686,0.04928 0.07059,-0.13219 c 0.09024,-0.167376 0.503369,-0.896946 0.663792,-1.172653 0.06698,-0.115184 0.121768,-0.210836 0.121768,-0.213208 0,-0.01805 -1.705223,-1.594691 -1.722734,-1.592914 z m -4.3982761,0.991662 c -0.010722,-0.0063 -0.041848,0.05086 -0.085758,0.159197 -0.1769534,0.436293 -0.4344412,1.153835 -0.424051,1.18118 0.00361,0.0091 0.1068608,0.08017 0.2293183,0.158251 0.2964045,0.188791 1.1137562,0.735233 1.4555107,0.97318 0.1507513,0.104972 0.2785303,0.191006 0.2842793,0.190942 0.0058,-6.6e-5 0.05608,-0.140867 0.111818,-0.31318 0.05573,-0.172318 0.1599068,-0.463471 0.2307388,-0.646262 0.07077,-0.182793 0.131848,-0.345848 0.135506,-0.362455 0.0054,-0.02421 -0.02317,-0.05012 -0.140719,-0.130771 -0.08083,-0.05541 -0.3320548,-0.228197 -0.5586071,-0.383777 -0.3277728,-0.22499 -1.1579263,-0.778816 -1.238036,-0.826263 z m 18.3753474,0.01895 c -0.0052,0 -0.228818,0.148606 -0.496541,0.32929 -0.611693,0.4129 -1.451134,1.003182 -1.451721,1.021036 -1.97e-4,0.0074 0.04264,0.12344 0.09571,0.257274 0.05299,0.133764 0.157338,0.4258 0.232161,0.649577 0.07476,0.223717 0.139087,0.410068 0.142614,0.413627 0.0036,0.0036 0.143532,-0.08871 0.310811,-0.204681 0.420432,-0.291519 1.058241,-0.717462 1.39392,-0.931488 0.154472,-0.09845 0.28049,-0.184891 0.28049,-0.191414 0,-0.06629 -0.482419,-1.343221 -0.507441,-1.343221 z m -7.103195,1.587225 c -0.0047,-2.42e-4 -0.05534,0.05513 -0.113239,0.123663 -0.0579,0.06853 -0.329889,0.382675 -0.603619,0.698381 -0.273731,0.315702 -0.510021,0.591953 -0.525442,0.613568 l -0.02796,0.03885 0.11229,0.164883 c 0.162775,0.238278 0.36857,0.575217 0.558135,0.912536 0.09103,0.162035 0.172759,0.304516 0.180993,0.316972 0.01691,0.02584 -0.0097,0.05258 0.283332,-0.286648 0.252363,-0.29218 0.491363,-0.554261 0.807828,-0.887427 l 0.261535,-0.275752 -0.184781,-0.298491 c -0.277454,-0.447298 -0.726337,-1.118366 -0.749076,-1.120537 z m -4.177012,0.02985 c -0.0058,0 -0.115177,0.15404 -0.243058,0.34303 -0.356716,0.527227 -0.686062,1.040421 -0.686062,1.068891 0,0.0054 0.133727,0.150056 0.297545,0.321711 0.335352,0.351489 0.580547,0.621726 0.845258,0.931961 0.09926,0.116308 0.183737,0.212658 0.188572,0.214632 0.0047,0.0016 0.129099,-0.197923 0.275277,-0.444899 0.146176,-0.247044 0.339573,-0.567464 0.43021,-0.711644 l 0.164408,-0.262012 -0.07771,-0.100923 C 11.827387,23.256287 11.006387,22.32115 10.964893,22.32115 Z M 0.02961613,22.441974 c -0.00608,0 -0.015166,0.03112 -0.020372,0.06965 -0.012351,0.09054 -0.0123,1.14248 0,1.232825 l 0.00897,0.06869 0.1293466,0.0398 c 0.6154814,0.188988 1.31305517,0.444513 1.88429907,0.689379 0.075798,0.0325 0.1407668,0.05922 0.144035,0.05922 0.0033,0 0.011042,-0.236756 0.016589,-0.525443 0.00557,-0.288687 0.013661,-0.558807 0.018486,-0.600778 l 0.00897,-0.07628 -0.1554047,-0.07296 C 1.2862084,22.959895 0.09366933,22.441966 0.02956663,22.441966 Z m 26.04331287,0 c -0.01031,2.43e-4 -0.155638,0.05731 -0.324555,0.126504 -0.498523,0.204274 -1.366583,0.590986 -1.803278,0.803563 -0.05681,0.02769 -0.05732,0.02936 -0.04876,0.09666 0.02918,0.228983 0.04382,0.473048 0.04547,0.781769 9.69e-4,0.193139 0.0041,0.351018 0.0072,0.351084 0.0031,0 0.158762,-0.06378 0.344927,-0.141665 0.660955,-0.276562 1.192862,-0.470913 1.620866,-0.591302 l 0.203259,-0.05686 0.01031,-0.159196 c 0.02701,-0.445451 -0.0082,-1.212069 -0.05547,-1.210556 z m -6.562596,0.184783 c -0.0022,-0.0022 -0.121076,0.08528 -0.264379,0.19473 -0.564444,0.431154 -1.600966,1.289869 -1.600966,1.326637 0,0.006 0.03096,0.08477 0.06871,0.175307 0.134611,0.322751 0.365299,0.980917 0.365299,1.04141 0,0.04599 0.03386,0.027 0.23311,-0.132192 0.361552,-0.288883 1.050692,-0.827528 1.377809,-1.076944 0.173035,-0.131855 0.316612,-0.241093 0.319814,-0.243532 0.01528,-0.01164 -0.463838,-1.245021 -0.499386,-1.285416 z m -12.8840133,0.0033 c -0.0067,-0.0025 -0.0084,-1.2e-5 -0.01043,0.0033 -0.05724,0.09371 -0.494972,1.230579 -0.487067,1.265042 0.0026,0.0113 0.193397,0.162566 0.424525,0.336398 0.471136,0.354383 0.869786,0.666743 1.2333,0.967024 0.134743,0.1113 0.246639,0.20021 0.248271,0.197573 0.0016,-0.0026 0.03766,-0.110509 0.08007,-0.239266 0.04248,-0.128759 0.144421,-0.409872 0.22695,-0.625416 0.08259,-0.215541 0.148234,-0.392738 0.146405,-0.393728 -0.0016,-7.28e-4 -0.08015,-0.07042 -0.174833,-0.153509 -0.382921,-0.335741 -0.885996,-0.747944 -1.326162,-1.08737 -0.273417,-0.210832 -0.340847,-0.262864 -0.361035,-0.270065 z m 16.5706413,1.119587 c -0.0062,-2.21e-4 -0.01567,0.0012 -0.02753,0.0053 -0.04722,0.01601 -0.142524,0.0683 -0.342082,0.175779 -0.619406,0.333629 -1.605467,0.897211 -1.659246,0.948543 -0.0155,0.0149 -0.01305,0.05391 0.01138,0.204682 0.01652,0.102264 0.04006,0.309422 0.05307,0.46006 0.013,0.150568 0.02834,0.298989 0.03412,0.329762 l 0.01043,0.05544 0.217,-0.121766 c 0.322481,-0.180884 1.012799,-0.53491 1.455515,-0.746235 0.214528,-0.10247 0.393249,-0.189483 0.397043,-0.193309 0.01134,-0.01148 -0.03877,-0.496717 -0.07918,-0.764711 -0.02072,-0.13706 -0.04175,-0.274904 -0.04639,-0.306074 -0.0041,-0.02841 -0.0041,-0.04671 -0.02413,-0.04738 z m -20.2729067,0.009 -0.0099,0.04786 c -0.047838,0.238738 -0.128497,0.881484 -0.1274516,1.01393 l 4.846e-4,0.07533 0.6998027,0.350613 c 0.3848178,0.192479 0.8465689,0.428357 1.0267214,0.524495 0.1801587,0.09621 0.33282,0.175305 0.3387678,0.175305 0.00598,0 0.01931,-0.08641 0.029373,-0.192363 0.010001,-0.105895 0.036889,-0.33851 0.059694,-0.515966 L 4.9822912,24.91519 4.8766336,24.84696 C 4.3888986,24.530896 3.4762373,24.017137 3.0458767,23.816417 Z M 13.063825,24.8119 12.925002,25.005209 c -0.292875,0.406903 -0.762342,1.13392 -0.762342,1.180707 0,0.0104 0.0718,0.11872 0.160144,0.240691 0.281768,0.388844 0.723491,1.074145 0.723491,1.122905 0,0.04014 0.03752,-0.0075 0.128873,-0.164883 0.131866,-0.227206 0.438825,-0.692993 0.630152,-0.955652 0.08188,-0.112419 0.154411,-0.213011 0.160618,-0.223162 0.02273,-0.03703 -0.51595,-0.878533 -0.831043,-1.298681 z m 3.671942,0.117977 -0.396096,0.397989 c -0.217992,0.2193 -0.535261,0.545613 -0.705485,0.724913 l -0.309866,0.326448 0.08008,0.204682 c 0.06097,0.155317 0.264876,0.719898 0.346822,0.961337 0.0045,0.01366 0.16723,-0.138091 0.452003,-0.422629 0.244849,-0.244605 0.578317,-0.569917 0.741023,-0.722069 0.162709,-0.152152 0.296596,-0.281755 0.296596,-0.288545 0,-0.0396 -0.365844,-0.906743 -0.468111,-1.109634 z m -7.3434093,0.0029 -0.04312,0.08765 c -0.07208,0.14444 -0.266402,0.592036 -0.370037,0.853313 l -0.09713,0.245428 0.03412,0.03174 c 0.01863,0.01773 0.178739,0.167411 0.355821,0.332609 0.17715,0.165203 0.496208,0.475351 0.709753,0.689376 0.2135483,0.213962 0.3900013,0.387243 0.3918313,0.385198 0.0016,-0.0022 0.01809,-0.05771 0.03649,-0.124136 0.05822,-0.210866 0.179843,-0.550418 0.287597,-0.804508 L 10.80192,26.383545 10.7536,26.327165 C 10.617679,26.167789 9.9922557,25.517088 9.7121837,25.244019 Z M 20.40392,25.32745 c -0.0055,2.43e-4 -0.199068,0.123733 -0.429736,0.273381 -0.51407,0.333494 -0.965167,0.636745 -1.308161,0.879371 l -0.25964,0.183361 0.0075,0.06823 c 0.0043,0.03736 0.02159,0.176002 0.03838,0.308917 0.01682,0.132906 0.03636,0.321707 0.04264,0.418838 l 0.01138,0.176728 0.464323,-0.312706 c 0.601825,-0.40539 0.938728,-0.621355 1.280679,-0.820622 l 0.277173,-0.161564 -0.0042,-0.10281 c -0.0087,-0.234058 -0.09813,-0.913223 -0.120344,-0.911116 z M 5.7289437,25.3663 c -0.02273,0.0045 -0.02823,0.041 -0.04264,0.115134 -0.04875,0.250534 -0.07011,0.431796 -0.07913,0.654787 l -0.0095,0.2279 0.245429,0.141665 c 0.521519,0.299958 1.119585,0.677103 1.59765,1.007771 0.122127,0.08447 0.185876,0.119915 0.189993,0.106604 0.0033,-0.01104 0.0097,-0.108046 0.01422,-0.216052 0.0067,-0.161903 0.04451,-0.508341 0.07581,-0.690799 0.01176,-0.06847 -0.495094,-0.417836 -1.843552,-1.270256 -0.0855,-0.05403 -0.125571,-0.08131 -0.148297,-0.07676 z m 5.8684743,1.928836 c -0.01456,-0.0063 -0.02692,0.02215 -0.07202,0.127451 -0.09547,0.22279 -0.141512,0.346167 -0.256325,0.690798 -0.134021,0.402489 -0.138204,0.331982 0.0379,0.570456 0.489627,0.663035 0.783303,1.233334 0.930067,1.805172 0.01477,0.05753 0.135508,0.1069 0.135508,0.05544 0,-0.0048 -0.01344,-0.0622 -0.02985,-0.12698 -0.101675,-0.40156 -0.04237,-1.006099 0.15588,-1.584856 0.02108,-0.06167 0.03837,-0.122777 0.03837,-0.135032 0,-0.07229 -0.606739,-0.983771 -0.922486,-1.385863 -0.0065,-0.0082 -0.01218,-0.01451 -0.01705,-0.01659 z m -3.0323143,0.0099 c -0.0065,0 -0.01502,0.01538 -0.01895,0.03412 -0.03522,0.168694 -0.08339,0.613026 -0.08339,0.769924 v 0.132189 l 0.153511,0.116555 c 0.5519,0.420546 1.297662,1.033721 1.5280013,1.256513 0.08684,0.08402 0.09119,0.07948 0.06349,-0.05212 -0.03993,-0.189776 -0.05834,-0.494891 -0.04122,-0.6908 l 0.01565,-0.178147 -0.114185,-0.110869 C 9.6947547,28.223865 8.6137317,27.305038 8.5651177,27.305038 Z m 5.9793433,0 c -0.0062,0 -0.0347,0.02569 -0.06254,0.05686 -0.222172,0.248749 -0.642887,0.861385 -0.833887,1.213398 l -0.06254,0.115134 0.03837,0.111344 c 0.186557,0.544754 0.252525,1.210393 0.159669,1.61281 -0.03162,0.137196 -0.02817,0.144864 0.05117,0.135508 0.03901,-0.0046 0.04421,-0.01388 0.08433,-0.155408 0.151206,-0.533354 0.473252,-1.122215 1.026722,-1.874348 l 0.03364,-0.04549 -0.05164,-0.180989 c -0.09188,-0.321899 -0.350109,-0.988821 -0.383305,-0.988821 z m 3.010994,0.0086 c -0.02406,0.0076 -0.06743,0.04166 -0.150195,0.107553 -0.413373,0.329215 -0.81806,0.6767 -1.21719,1.044727 l -0.235477,0.217473 -9.71e-4,0.266276 c -2.42e-4,0.245194 -0.0073,0.370101 -0.03743,0.636786 l -0.01138,0.09808 0.141191,-0.129348 c 0.332607,-0.305359 0.763984,-0.659444 1.31432,-1.077417 l 0.320762,-0.243062 -0.01089,-0.173882 c -0.0089,-0.150834 -0.04987,-0.522233 -0.07771,-0.697905 -0.006,-0.03786 -0.01099,-0.05688 -0.03506,-0.04927 z" />
</svg>
